<?xml version="1.0" standalone="no"?>
<!DOCTYPE svg PUBLIC "-//W3C//DTD SVG 20010904//EN"
 "http://www.w3.org/TR/2001/REC-SVG-20010904/DTD/svg10.dtd">
<svg version="1.0" xmlns="http://www.w3.org/2000/svg"
 width="700.000000pt" height="700.000000pt" viewBox="0 0 700.000000 700.000000"
 preserveAspectRatio="xMidYMid meet">
<metadata>
Created by potrace 1.11, written by Peter Selinger 2001-2013
</metadata>
<g transform="translate(0.000000,700.000000) scale(0.100000,-0.100000)"
fill="#000000" stroke="none">
<path d="M3295 3930 c-31 -13 -712 -702 -720 -728 -46 -154 286 -563 575 -708
60 -30 87 -38 133 -38 l57 -1 362 362 361 362 -6 50 c-25 213 -394 606 -647
691 -64 22 -84 23 -115 10z"/>
<path d="M1546 2190 l-898 -899 41 -53 c176 -222 437 -473 670 -641 l64 -46
28 22 c15 12 419 414 898 892 l871 870 -44 -3 c-25 -2 -67 3 -94 12 -128 43
-373 246 -502 418 -81 108 -133 216 -134 279 -1 27 -1 49 -1 49 -1 0 -405
-405 -899 -900z"/>
</g>
</svg>
